<?xml version="1.0" ?><svg id="Line" style="enable-background:new 0 0 200 200;" version="1.1" viewBox="0 0 200 200" xml:space="preserve" xmlns="http://www.w3.org/2000/svg" xmlns:xlink="http://www.w3.org/1999/xlink"><path d="M159,23.8c1.3-1.3,0.9-3.9-1.4-3.4c-37.2,0-74.4,0-111.6,0c0,0,0,0,0,0c-0.7,0-1.5,0.5-1.9,1.3c-0.4,0.9-0.1,1.7-0.1,1.9  v27.7c-3,0.9-5.1,3.7-5.1,6.9v3c0,2.2,1,4.3,2.8,5.6c-1.6,2.4-1,5.7,1.4,7.3c2.4,1.6,5.7,1,7.3-1.4c1.2-1.8,1.2-4.1,0-5.9  c1.7-1.3,2.8-3.4,2.8-5.6v-3c0-3.2-2.1-6-5.2-6.9V27.6l14.1,14.1c0,9.7,0.1,19.4,0.1,29.1c-0.6,2-1.2,4.3-1.6,6.9  c-0.4,2.5-0.5,4.9-0.6,6.9v2.8h-5.1c-1.3,0.1-2.8,0.5-4,1.6c-3.2,3.1-2,10,1.4,14c2.6,3,6,3.8,7.7,4.1c0.2,14.7,10.4,27.4,24.7,30.8  c0.7,0.2,1.4,0.3,2.2,0.4v0.7c-6.4,0-12.4,1.6-17.7,4.4c-12.2,6.4-20.5,19.2-20.5,34c0,1.1,0.9,2,2,2h105.1c1.1,0,2-0.9,2-2  c0-12.9-6.8-25.2-17.6-32.3c-6.8-4.4-14.2-5.6-22.1-6.1c0-0.3,0-0.6,0-0.9c0.4-0.1,0.8-0.2,1.1-0.3c14.2-3.5,24.3-16.2,24.5-30.8  c1.6-0.3,5-1.3,7.4-4.2c4.2-5,3-12.6,1.1-14.1c-1.8-1.4-3.7-1.4-3.7-1.4h-4.8v-2.8c0.1-2,0-4.8-0.7-7.9c-0.6-2.6-1.5-4.7-2.3-6.3  c0-9.5,0-18.9,0-28.4C140.7,42,159,23.8,159,23.8z M136.8,42.7v25.4H66.1V42.7H136.8z M64,84.6c0-4.2,0.7-8.4,2.1-12.4h47.1  c-5.9,9-19.3,20.3-49.2,16V84.6z M137.6,72.2c0.6,1.8,1.2,4,1.6,6.5c0.3,2.1,0.5,3.9,0.5,5.6c-1.7,0.1-4-0.1-6.5-1.1  c-7-2.8-9.6-9.7-10-11.1L137.6,72.2z M46,70.9c-0.7,0-1.3-0.6-1.3-1.3c0-0.7,0.6-1.3,1.3-1.3c0.7,0,1.3,0.6,1.3,1.3c0,0,0,0,0,0  C47.3,70.4,46.7,70.9,46,70.9z M49.1,58.1v3c0,1.7-1.5,3.1-3.2,3.1c-1.7,0-3.1-1.4-3.1-3.1v-3c0-1.7,1.5-3.1,3.2-3.1  C47.7,55,49.1,56.4,49.1,58.1z M152.8,24.3l-14.3,14.3H64.7L50.4,24.3H152.8z M59.7,103.1c-3.8-0.9-6.4-4.3-6.4-8.2V93  c0-0.9,0.7-1.6,1.6-1.6h4.8V103.1z M114,140.9c-0.7,4.2-4.4,9.8-10.6,10.3c-6.9,0.5-11.7-5.6-12.4-10.3c-0.1-0.8-0.1-1.5-0.1-2  c7.7,0,15.5,0,23.2-0.1C114.1,139.3,114.1,140,114,140.9z M153.7,175.5h-101c1.1-18.2,16.1-32.3,34.3-32.4h0.3  c2,8.4,10.4,13.5,18.8,11.5c5.7-1.4,10.1-5.8,11.5-11.5h1.8C137.6,143.2,152.6,157.3,153.7,175.5z M118.3,134  c-0.8,0.2-1.7,0.3-2.5,0.5c-3.9,0.2-7.9,0.4-12.2,0.5c-3.9,0-7.7,0-11.4-0.1c-1.1,0-2.1-0.1-3.1-0.2C74.8,133.1,64,121,64,106.6  V92.2c4.2,0.6,8.4,0.9,12.6,0.9c25.1,0,36.4-12.2,41.3-21h1c2.6,6.7,8.3,16.2,20.1,16.2c0.3,0,0.5,0,0.8,0v1.1v0  c0,5.7,0,11.5,0,17.2C139.8,119.6,130.9,131,118.3,134L118.3,134z M148.5,91.4c0.9,0,1.6,0.7,1.6,1.6v1.9c0,3.9-2.6,7.2-6.4,8.1  V91.4H148.5z"/><path d="M89,102c0-3.1-2.5-5.7-5.7-5.7s-5.7,2.5-5.7,5.7s2.5,5.7,5.7,5.7C86.5,107.7,89,105.2,89,102z M83.4,103.7  c-0.9,0-1.7-0.7-1.7-1.7c0-0.9,0.7-1.7,1.7-1.7c0.9,0,1.7,0.7,1.7,1.7c0,0,0,0,0,0C85,103,84.3,103.7,83.4,103.7z"/><path d="M119.7,96.4c-3.1,0-5.7,2.5-5.7,5.7c0,3.1,2.5,5.7,5.7,5.7s5.7-2.5,5.7-5.7C125.4,98.9,122.9,96.4,119.7,96.4z M119.7,103.7  c-0.9,0-1.7-0.7-1.7-1.7s0.7-1.7,1.7-1.7s1.7,0.7,1.7,1.7l0,0C121.4,103,120.7,103.7,119.7,103.7z"/><path d="M115.6,118.9c-3.9,3.8-9.2,5.8-14.7,5.6c-4.7-0.3-9.1-2.3-12.5-5.5c-0.8-0.8-2-0.8-2.8-0.1c-0.8,0.8-0.8,2-0.1,2.8  c0,0,0.1,0.1,0.1,0.1c9.3,8.5,23.5,8.8,32.7,0c0.8-0.7,0.9-2,0.2-2.8s-2-0.9-2.8-0.2C115.7,118.9,115.6,118.9,115.6,118.9z"/></svg>